<?xml version="1.0" encoding="utf-8"?>
<!-- Generator: Adobe Illustrator 21.1.0, SVG Export Plug-In . SVG Version: 6.00 Build 0)  -->
<svg version="1.1" id="Layer_1" xmlns="http://www.w3.org/2000/svg" xmlns:xlink="http://www.w3.org/1999/xlink" x="0px" y="0px"
	 viewBox="0 0 337 335" style="enable-background:new 0 0 337 335;" xml:space="preserve">
<style type="text/css">
	.st0{display:none;fill:#5421F4;}
	.st1{display:none;opacity:0.8;fill:#FF0A7E;}
	.st2{display:none;opacity:0.8;}
	.st3{display:inline;}
	.st4{fill:#9B00C8;}
	.st5{fill:#00EFE2;}
	.st6{display:none;fill:#FFFFFF;}
	.st7{fill:#FFFFFF;}
	.st8{display:none;fill:#97D3D1;}
	.st9{font-family:'ProductSans-Bold';}
	.st10{font-size:132.2495px;}
	.st11{fill:#FFFFFF;stroke:#FFFFFF;stroke-width:4;stroke-linecap:square;stroke-miterlimit:10;}
</style>
<path class="st0" d="M136.9,325.1l-57.3-23.2C15.1,275.7-16.2,201.5,9.9,136.9l23.2-57.3C59.3,15.1,133.5-16.2,198.1,9.9l57.3,23.2
	c64.5,26.2,95.9,100.4,69.7,164.9l-23.2,57.3C275.7,319.9,201.5,351.2,136.9,325.1z"/>
<g>
	<g>
		<path class="st1" d="M244.2,307.6c-18.8,8.6-40.4,12.9-64.9,12.9c-22.3,0-42.9-3.7-61.9-11c-18.9-7.4-35.3-17.8-49.2-31.2
			c-13.9-13.5-24.8-29.6-32.7-48.4c-7.9-18.8-11.8-39.5-11.8-62.1c0-23.1,4-44.1,12-62.9c8-18.8,19.1-34.8,33.3-48
			c14.2-13.2,30.8-23.3,49.8-30.4c19.1-7.1,39.6-10.6,61.7-10.6c20.4,0,40.5,3.6,60.2,10.8c4.7,1.7,9.2,3.6,13.4,5.7
			c19.9,9.8,24.2,36.3,8.5,52l0,0c-10.4,10.4-26.4,12.6-39.1,5.2c-2.5-1.5-5.1-2.8-7.9-3.9c-10.6-4.4-21.5-6.5-32.7-6.5
			c-12.2,0-23.5,2.2-33.7,6.7c-10.2,4.5-19,10.7-26.3,18.6c-7.4,7.9-13.1,17.2-17.1,28c-4.1,10.8-6.1,22.5-6.1,35.3
			c0,13.1,2,25,6.1,35.9c4.1,10.9,9.7,20.2,16.9,28c7.2,7.8,15.9,13.8,25.9,18.2c10.1,4.4,21.1,6.5,33.1,6.5c13.9,0,26-2.7,36.3-8.2
			c2.3-1.2,4.5-2.5,6.6-3.8c12.7-8.3,29.3-7.1,40.3,3.3l0.3,0.3c15.6,14.6,13,40.1-5.2,51.3C255,302.2,249.7,305,244.2,307.6z"/>
		<g class="st2">
			<g class="st3">
				<path class="st4" d="M272.8,293.8c-18.8,8.6-40.4,12.9-64.9,12.9c-22.3,0-42.9-3.7-61.9-11c-18.9-7.4-35.3-17.8-49.2-31.2
					C82.9,250.9,72,234.8,64.1,216c-7.9-18.8-11.8-39.5-11.8-62.1c0-23.1,4-44.1,12-62.9c8-18.8,19.1-34.8,33.3-48
					c14.2-13.2,30.8-23.3,49.8-30.4C166.5,5.6,187,2,209.1,2c20.4,0,40.5,3.6,60.2,10.8c4.7,1.7,9.2,3.6,13.4,5.7
					c19.9,9.8,24.2,36.3,8.5,52l0,0c-10.4,10.4-26.4,12.6-39.1,5.2c-2.5-1.5-5.1-2.8-7.9-3.9c-10.6-4.4-21.5-6.5-32.7-6.5
					c-12.2,0-23.5,2.2-33.7,6.7c-10.2,4.5-19,10.7-26.3,18.6c-7.4,7.9-13.1,17.2-17.1,28c-4.1,10.8-6.1,22.5-6.1,35.3
					c0,13.1,2,25,6.1,35.9c4.1,10.9,9.7,20.2,16.9,28c7.2,7.8,15.9,13.8,25.9,18.2c10.1,4.4,21.1,6.5,33.1,6.5
					c13.9,0,26-2.7,36.3-8.2c2.3-1.2,4.5-2.5,6.6-3.8c12.7-8.3,29.3-7.1,40.3,3.3l0.3,0.3c15.6,14.6,13,40.1-5.2,51.3
					C283.6,288.4,278.3,291.2,272.8,293.8z"/>
			</g>
		</g>
		<g class="st2">
			<g class="st3">
				<path class="st5" d="M291.7,320.6c-18.8,8.6-40.4,12.9-64.9,12.9c-22.3,0-42.9-3.7-61.9-11c-18.9-7.4-35.3-17.8-49.2-31.2
					c-13.9-13.5-24.8-29.6-32.7-48.4c-7.9-18.8-11.8-39.5-11.8-62.1c0-23.1,4-44.1,12-62.9c8-18.8,19.1-34.8,33.3-48
					c14.2-13.2,30.8-23.3,49.8-30.4c19.1-7.1,39.6-10.6,61.7-10.6c20.4,0,40.5,3.6,60.2,10.8c4.7,1.7,9.2,3.6,13.4,5.7
					c19.9,9.8,24.2,36.3,8.5,52l0,0c-10.4,10.4-26.4,12.6-39.1,5.2c-2.5-1.5-5.1-2.8-7.9-3.9c-10.6-4.4-21.5-6.5-32.7-6.5
					c-12.2,0-23.5,2.2-33.7,6.7c-10.2,4.5-19,10.7-26.3,18.6c-7.4,7.9-13.1,17.2-17.1,28c-4.1,10.8-6.1,22.5-6.1,35.3
					c0,13.1,2,25,6.1,35.9c4.1,10.9,9.7,20.2,16.9,28c7.2,7.8,15.9,13.8,25.9,18.2c10.1,4.4,21.1,6.5,33.1,6.5
					c13.9,0,26-2.7,36.3-8.2c2.3-1.2,4.5-2.5,6.6-3.8c12.7-8.3,29.3-7.1,40.3,3.3l0.3,0.3c15.6,14.6,13,40.1-5.2,51.3
					C302.5,315.3,297.2,318.1,291.7,320.6z"/>
			</g>
		</g>
	</g>
</g>
<path d="M303.6,277.8H33.4C15,277.8,0,262.8,0,244.4V90.6c0-18.4,15-33.4,33.4-33.4h270.3c18.4,0,33.4,15,33.4,33.4v153.8
	C337,262.8,322,277.8,303.6,277.8z"/>
<circle class="st6" cx="98.1" cy="168.1" r="48.9"/>
<circle class="st6" cx="98.1" cy="168.1" r="48.9"/>
<circle class="st7" cx="236.3" cy="167.1" r="53.7"/>
<text transform="matrix(1.0507 0 0 1 45.0122 214.9395)" class="st8 st9 st10">C</text>
<g>
	<g>
		<path class="st11" d="M146.5,204.7c-5.3,6.5-11.6,11.4-18.9,14.7c-7.3,3.4-15.4,5.1-24.4,5.1c-8.1,0-15.6-1.5-22.5-4.4
			c-6.9-2.9-12.9-6.9-17.9-12c-5-5-9-11-12-17.9c-2.9-6.9-4.4-14.3-4.4-22.3c0-8,1.5-15.4,4.4-22.3c2.9-6.9,6.9-12.9,12-17.9
			c5-5,11-9,17.9-12c6.9-2.9,14.4-4.4,22.5-4.4c8.7,0,16.3,1.5,22.9,4.5c6.6,3,12.5,7.4,17.6,13.2L129.4,143
			c-3.2-3.7-6.9-6.7-11.1-8.9c-4.2-2.2-9.2-3.3-14.9-3.3c-5,0-9.8,0.9-14.2,2.6c-4.4,1.8-8.3,4.3-11.6,7.5
			c-3.3,3.2-5.9,7.1-7.8,11.7c-1.9,4.6-2.9,9.7-2.9,15.4c0,5.6,1,10.8,2.9,15.4c1.9,4.6,4.5,8.5,7.8,11.7c3.3,3.2,7.1,5.7,11.6,7.5
			c4.4,1.8,9.2,2.6,14.2,2.6c6.1,0,11.4-1.2,16.1-3.7c4.7-2.5,8.8-6,12.5-10.5L146.5,204.7z"/>
	</g>
</g>
</svg>
