<?xml version="1.0" encoding="utf-8"?>
<!-- Generator: Adobe Illustrator 21.1.0, SVG Export Plug-In . SVG Version: 6.00 Build 0)  -->
<svg version="1.1" id="Layer_1" xmlns="http://www.w3.org/2000/svg" xmlns:xlink="http://www.w3.org/1999/xlink" x="0px" y="0px"
	 viewBox="0 0 337 335" style="enable-background:new 0 0 337 335;" xml:space="preserve">
<style type="text/css">
	.st0{display:none;opacity:0.8;fill:#FF0A7E;enable-background:new    ;}
	.st1{display:none;opacity:0.8;}
	.st2{display:inline;}
	.st3{fill:#9B00C8;}
	.st4{fill:#00EFE2;}
	.st5{fill:#FFFFFF;}
	.st6{stroke:#000000;stroke-width:4;stroke-linecap:square;stroke-miterlimit:10;}
</style>
<g>
	<g>
		<path class="st0" d="M244.2,307.6c-18.8,8.6-40.4,12.9-64.9,12.9c-22.3,0-42.9-3.7-61.9-11c-18.9-7.4-35.3-17.8-49.2-31.2
			c-13.9-13.5-24.8-29.6-32.7-48.4s-11.8-39.5-11.8-62.1c0-23.1,4-44.1,12-62.9s19.1-34.8,33.3-48s30.8-23.3,49.8-30.4
			c19.1-7.1,39.6-10.6,61.7-10.6c20.4,0,40.5,3.6,60.2,10.8c4.7,1.7,9.2,3.6,13.4,5.7c19.9,9.8,24.2,36.3,8.5,52l0,0
			c-10.4,10.4-26.4,12.6-39.1,5.2c-2.5-1.5-5.1-2.8-7.9-3.9c-10.6-4.4-21.5-6.5-32.7-6.5c-12.2,0-23.5,2.2-33.7,6.7
			s-19,10.7-26.3,18.6c-7.4,7.9-13.1,17.2-17.1,28c-4.1,10.8-6.1,22.5-6.1,35.3c0,13.1,2,25,6.1,35.9c4.1,10.9,9.7,20.2,16.9,28
			c7.2,7.8,15.9,13.8,25.9,18.2c10.1,4.4,21.1,6.5,33.1,6.5c13.9,0,26-2.7,36.3-8.2c2.3-1.2,4.5-2.5,6.6-3.8
			c12.7-8.3,29.3-7.1,40.3,3.3l0.3,0.3c15.6,14.6,13,40.1-5.2,51.3C255,302.2,249.7,305,244.2,307.6z"/>
		<g class="st1">
			<g class="st2">
				<path class="st3" d="M272.8,293.8c-18.8,8.6-40.4,12.9-64.9,12.9c-22.3,0-42.9-3.7-61.9-11c-18.9-7.4-35.3-17.8-49.2-31.2
					C82.9,250.9,72,234.8,64.1,216s-11.8-39.5-11.8-62.1c0-23.1,4-44.1,12-62.9s19.1-34.8,33.3-48s30.8-23.3,49.8-30.4
					C166.5,5.6,187,2,209.1,2c20.4,0,40.5,3.6,60.2,10.8c4.7,1.7,9.2,3.6,13.4,5.7c19.9,9.8,24.2,36.3,8.5,52l0,0
					c-10.4,10.4-26.4,12.6-39.1,5.2c-2.5-1.5-5.1-2.8-7.9-3.9c-10.6-4.4-21.5-6.5-32.7-6.5c-12.2,0-23.5,2.2-33.7,6.7
					s-19,10.7-26.3,18.6c-7.4,7.9-13.1,17.2-17.1,28c-4.1,10.8-6.1,22.5-6.1,35.3c0,13.1,2,25,6.1,35.9s9.7,20.2,16.9,28
					s15.9,13.8,25.9,18.2c10.1,4.4,21.1,6.5,33.1,6.5c13.9,0,26-2.7,36.3-8.2c2.3-1.2,4.5-2.5,6.6-3.8c12.7-8.3,29.3-7.1,40.3,3.3
					l0.3,0.3c15.6,14.6,13,40.1-5.2,51.3C283.6,288.4,278.3,291.2,272.8,293.8z"/>
			</g>
		</g>
		<g class="st1">
			<g class="st2">
				<path class="st4" d="M291.7,320.6c-18.8,8.6-40.4,12.9-64.9,12.9c-22.3,0-42.9-3.7-61.9-11c-18.9-7.4-35.3-17.8-49.2-31.2
					c-13.9-13.5-24.8-29.6-32.7-48.4s-11.8-39.5-11.8-62.1c0-23.1,4-44.1,12-62.9s19.1-34.8,33.3-48s30.8-23.3,49.8-30.4
					c19.1-7.1,39.6-10.6,61.7-10.6c20.4,0,40.5,3.6,60.2,10.8c4.7,1.7,9.2,3.6,13.4,5.7c19.9,9.8,24.2,36.3,8.5,52l0,0
					c-10.4,10.4-26.4,12.6-39.1,5.2c-2.5-1.5-5.1-2.8-7.9-3.9c-10.6-4.4-21.5-6.5-32.7-6.5c-12.2,0-23.5,2.2-33.7,6.7
					s-19,10.7-26.3,18.6c-7.4,7.9-13.1,17.2-17.1,28c-4.1,10.8-6.1,22.5-6.1,35.3c0,13.1,2,25,6.1,35.9c4.1,10.9,9.7,20.2,16.9,28
					s15.9,13.8,25.9,18.2c10.1,4.4,21.1,6.5,33.1,6.5c13.9,0,26-2.7,36.3-8.2c2.3-1.2,4.5-2.5,6.6-3.8c12.7-8.3,29.3-7.1,40.3,3.3
					l0.3,0.3c15.6,14.6,13,40.1-5.2,51.3C302.5,315.3,297.2,318.1,291.7,320.6z"/>
			</g>
		</g>
	</g>
</g>
<path class="st5" d="M303.6,277.8H33.4C15,277.8,0,262.8,0,244.4V90.6c0-18.4,15-33.4,33.4-33.4h270.3c18.4,0,33.4,15,33.4,33.4
	v153.8C337,262.8,322,277.8,303.6,277.8z"/>
<circle cx="236.3" cy="167.1" r="53.7"/>
<g>
	<g>
		<path class="st6" d="M146.5,204.7c-5.3,6.5-11.6,11.4-18.9,14.7c-7.3,3.4-15.4,5.1-24.4,5.1c-8.1,0-15.6-1.5-22.5-4.4
			s-12.9-6.9-17.9-12c-5-5-9-11-12-17.9c-2.9-6.9-4.4-14.3-4.4-22.3s1.5-15.4,4.4-22.3c2.9-6.9,6.9-12.9,12-17.9c5-5,11-9,17.9-12
			c6.9-2.9,14.4-4.4,22.5-4.4c8.7,0,16.3,1.5,22.9,4.5s12.5,7.4,17.6,13.2l-14.3,14c-3.2-3.7-6.9-6.7-11.1-8.9s-9.2-3.3-14.9-3.3
			c-5,0-9.8,0.9-14.2,2.6c-4.4,1.8-8.3,4.3-11.6,7.5c-3.3,3.2-5.9,7.1-7.8,11.7c-1.9,4.6-2.9,9.7-2.9,15.4c0,5.6,1,10.8,2.9,15.4
			c1.9,4.6,4.5,8.5,7.8,11.7s7.1,5.7,11.6,7.5c4.4,1.8,9.2,2.6,14.2,2.6c6.1,0,11.4-1.2,16.1-3.7s8.8-6,12.5-10.5L146.5,204.7z"/>
	</g>
</g>
</svg>
