<?xml version="1.0" encoding="utf-8"?>
<!-- Generator: Adobe Illustrator 21.1.0, SVG Export Plug-In . SVG Version: 6.00 Build 0)  -->
<svg version="1.1" id="Layer_1" xmlns="http://www.w3.org/2000/svg" xmlns:xlink="http://www.w3.org/1999/xlink" x="0px" y="0px"
	 viewBox="0 0 337 335" style="enable-background:new 0 0 337 335;" xml:space="preserve">
<style type="text/css">
	.st0{display:none;fill:#5421F4;}
	.st1{display:none;opacity:0.8;fill:#FF0A7E;}
	.st2{display:none;opacity:0.8;}
	.st3{display:inline;}
	.st4{fill:#9B00C8;}
	.st5{fill:#00EFE2;}
	.st6{fill:#FFFFFF;}
</style>
<path class="st0" d="M136.9,325.1l-57.3-23.2C15.1,275.7-16.2,201.5,9.9,136.9l23.2-57.3C59.3,15.1,133.5-16.2,198.1,9.9l57.3,23.2
	c64.5,26.2,95.9,100.4,69.7,164.9l-23.2,57.3C275.7,319.9,201.5,351.2,136.9,325.1z"/>
<g>
	<g>
		<path class="st1" d="M244.2,307.6c-18.8,8.6-40.4,12.9-64.9,12.9c-22.3,0-42.9-3.7-61.9-11c-18.9-7.4-35.3-17.8-49.2-31.2
			c-13.9-13.5-24.8-29.6-32.7-48.4c-7.9-18.8-11.8-39.5-11.8-62.1c0-23.1,4-44.1,12-62.9c8-18.8,19.1-34.8,33.3-48
			c14.2-13.2,30.8-23.3,49.8-30.4c19.1-7.1,39.6-10.6,61.7-10.6c20.4,0,40.5,3.6,60.2,10.8c4.7,1.7,9.2,3.6,13.4,5.7
			c19.9,9.8,24.2,36.3,8.5,52l0,0c-10.4,10.4-26.4,12.6-39.1,5.2c-2.5-1.5-5.1-2.8-7.9-3.9c-10.6-4.4-21.5-6.5-32.7-6.5
			c-12.2,0-23.5,2.2-33.7,6.7c-10.2,4.5-19,10.7-26.3,18.6c-7.4,7.9-13.1,17.2-17.1,28c-4.1,10.8-6.1,22.5-6.1,35.3
			c0,13.1,2,25,6.1,35.9c4.1,10.9,9.7,20.2,16.9,28c7.2,7.8,15.9,13.8,25.9,18.2c10.1,4.4,21.1,6.5,33.1,6.5c13.9,0,26-2.7,36.3-8.2
			c2.3-1.2,4.5-2.5,6.6-3.8c12.7-8.3,29.3-7.1,40.3,3.3l0.3,0.3c15.6,14.6,13,40.1-5.2,51.3C255,302.2,249.7,305,244.2,307.6z"/>
		<g class="st2">
			<g class="st3">
				<path class="st4" d="M272.8,293.8c-18.8,8.6-40.4,12.9-64.9,12.9c-22.3,0-42.9-3.7-61.9-11c-18.9-7.4-35.3-17.8-49.2-31.2
					C82.9,250.9,72,234.8,64.1,216c-7.9-18.8-11.8-39.5-11.8-62.1c0-23.1,4-44.1,12-62.9c8-18.8,19.1-34.8,33.3-48
					c14.2-13.2,30.8-23.3,49.8-30.4C166.5,5.6,187,2,209.1,2c20.4,0,40.5,3.6,60.2,10.8c4.7,1.7,9.2,3.6,13.4,5.7
					c19.9,9.8,24.2,36.3,8.5,52l0,0c-10.4,10.4-26.4,12.6-39.1,5.2c-2.5-1.5-5.1-2.8-7.9-3.9c-10.6-4.4-21.5-6.5-32.7-6.5
					c-12.2,0-23.5,2.2-33.7,6.7c-10.2,4.5-19,10.7-26.3,18.6c-7.4,7.9-13.1,17.2-17.1,28c-4.1,10.8-6.1,22.5-6.1,35.3
					c0,13.1,2,25,6.1,35.9c4.1,10.9,9.7,20.2,16.9,28c7.2,7.8,15.9,13.8,25.9,18.2c10.1,4.4,21.1,6.5,33.1,6.5
					c13.9,0,26-2.7,36.3-8.2c2.3-1.2,4.5-2.5,6.6-3.8c12.7-8.3,29.3-7.1,40.3,3.3l0.3,0.3c15.6,14.6,13,40.1-5.2,51.3
					C283.6,288.4,278.3,291.2,272.8,293.8z"/>
			</g>
		</g>
		<g class="st2">
			<g class="st3">
				<path class="st5" d="M291.7,320.6c-18.8,8.6-40.4,12.9-64.9,12.9c-22.3,0-42.9-3.7-61.9-11c-18.9-7.4-35.3-17.8-49.2-31.2
					c-13.9-13.5-24.8-29.6-32.7-48.4c-7.9-18.8-11.8-39.5-11.8-62.1c0-23.1,4-44.1,12-62.9c8-18.8,19.1-34.8,33.3-48
					c14.2-13.2,30.8-23.3,49.8-30.4c19.1-7.1,39.6-10.6,61.7-10.6c20.4,0,40.5,3.6,60.2,10.8c4.7,1.7,9.2,3.6,13.4,5.7
					c19.9,9.8,24.2,36.3,8.5,52l0,0c-10.4,10.4-26.4,12.6-39.1,5.2c-2.5-1.5-5.1-2.8-7.9-3.9c-10.6-4.4-21.5-6.5-32.7-6.5
					c-12.2,0-23.5,2.2-33.7,6.7c-10.2,4.5-19,10.7-26.3,18.6c-7.4,7.9-13.1,17.2-17.1,28c-4.1,10.8-6.1,22.5-6.1,35.3
					c0,13.1,2,25,6.1,35.9c4.1,10.9,9.7,20.2,16.9,28c7.2,7.8,15.9,13.8,25.9,18.2c10.1,4.4,21.1,6.5,33.1,6.5
					c13.9,0,26-2.7,36.3-8.2c2.3-1.2,4.5-2.5,6.6-3.8c12.7-8.3,29.3-7.1,40.3,3.3l0.3,0.3c15.6,14.6,13,40.1-5.2,51.3
					C302.5,315.3,297.2,318.1,291.7,320.6z"/>
			</g>
		</g>
	</g>
</g>
<path d="M303.6,277.8H33.4C15,277.8,0,262.8,0,244.4V90.6c0-18.4,15-33.4,33.4-33.4h270.3c18.4,0,33.4,15,33.4,33.4v153.8
	C337,262.8,322,277.8,303.6,277.8z"/>
<circle class="st6" cx="98.1" cy="168.1" r="48.9"/>
<circle class="st6" cx="238.9" cy="168.1" r="48.9"/>
</svg>
